<?xml version="1.0" encoding="UTF-8"?>
<svg data-logo="logo" xmlns="http://www.w3.org/2000/svg" viewBox="0 0 281 42">
    <g id="logogram" transform="translate(0, 1)">
        <path d="M68.75 0H96.25L72.5 40H45L68.75 0Z" fill="#2563EB"/>
        <path d="M43.75 0H63.75L40 40H20L43.75 0Z" fill="#1D4ED8"/>
        <path d="M23.75 0H38.75L15 40H0L23.75 0Z" fill="#3B82F6"/>
    </g>
    <g id="logotype" transform="translate(98, 0)">
        <path fill="#000000" d="M12.81 35.34L12.81 35.34Q9.63 35.34 7.27 34.38Q4.91 33.43 3.60 31.48Q2.28 29.53 2.23 26.59L2.23 26.59L8.02 26.59Q8.11 27.82 8.70 28.66Q9.29 29.50 10.32 29.92Q11.36 30.33 12.74 30.33L12.74 30.33Q13.99 30.33 14.89 29.99Q15.80 29.65 16.29 29.04Q16.77 28.42 16.77 27.60L16.77 27.60Q16.77 26.87 16.32 26.35Q15.87 25.84 14.96 25.45Q14.06 25.05 12.66 24.75L12.66 24.75L9.96 24.11Q6.66 23.36 4.78 21.65Q2.90 19.94 2.90 17.07L2.90 17.07Q2.90 14.71 4.18 12.94Q5.46 11.16 7.69 10.18Q9.92 9.19 12.81 9.19L12.81 9.19Q15.77 9.19 17.94 10.19Q20.11 11.19 21.30 12.98Q22.50 14.77 22.53 17.12L22.53 17.12L16.74 17.12Q16.62 15.74 15.61 14.97Q14.60 14.20 12.79 14.20L12.79 14.20Q11.60 14.20 10.78 14.52Q9.96 14.83 9.54 15.39Q9.13 15.94 9.13 16.66L9.13 16.66Q9.13 17.45 9.60 17.99Q10.06 18.53 10.91 18.88Q11.77 19.24 12.89 19.50L12.89 19.50L15.10 20.01Q16.94 20.41 18.39 21.08Q19.83 21.76 20.83 22.70Q21.83 23.64 22.35 24.87Q22.88 26.10 22.88 27.62L22.88 27.62Q22.88 30.03 21.67 31.76Q20.47 33.50 18.22 34.42Q15.97 35.34 12.81 35.34ZM29.97 42.14L24.01 42.14L24.01 15.89L29.90 15.89L29.90 19.17L30.11 19.17Q30.47 18.30 31.16 17.50Q31.85 16.70 32.92 16.18Q33.99 15.65 35.51 15.65L35.51 15.65Q37.52 15.65 39.26 16.71Q40.99 17.76 42.06 19.94Q43.13 22.11 43.13 25.46L43.13 25.46Q43.13 28.71 42.10 30.89Q41.08 33.07 39.34 34.17Q37.59 35.27 35.47 35.27L35.47 35.27Q34.02 35.27 32.95 34.79Q31.88 34.30 31.18 33.53Q30.48 32.76 30.11 31.91L30.11 31.91L29.97 31.91L29.97 42.14ZM33.44 30.63L33.44 30.63Q34.58 30.63 35.38 29.98Q36.17 29.34 36.58 28.17Q36.99 27.00 36.99 25.46L36.99 25.46Q36.99 23.91 36.58 22.76Q36.17 21.60 35.39 20.96Q34.60 20.32 33.44 20.32L33.44 20.32Q32.29 20.32 31.49 20.94Q30.69 21.57 30.26 22.72Q29.83 23.87 29.83 25.46L29.83 25.46Q29.83 27.02 30.26 28.18Q30.69 29.34 31.50 29.98Q32.31 30.63 33.44 30.63ZM53.16 35.36L53.16 35.36Q50.17 35.36 48.00 34.17Q45.83 32.98 44.68 30.78Q43.53 28.57 43.53 25.52L43.53 25.52Q43.53 22.58 44.68 20.35Q45.83 18.13 47.95 16.89Q50.07 15.65 52.94 15.65L52.94 15.65Q54.96 15.65 56.64 16.29Q58.33 16.92 59.56 18.16Q60.80 19.40 61.48 21.21Q62.15 23.02 62.15 25.40L62.15 25.40L62.15 26.90L45.64 26.90L45.64 23.43L59.32 23.43L56.53 24.25Q56.53 22.92 56.13 21.96Q55.73 21.00 54.94 20.49Q54.16 19.98 52.99 19.98L52.99 19.98Q51.83 19.98 51.03 20.50Q50.22 21.02 49.81 21.95Q49.39 22.88 49.39 24.13L49.39 24.13L49.39 26.63Q49.39 28.10 49.87 29.08Q50.36 30.06 51.23 30.55Q52.10 31.04 53.27 31.04L53.27 31.04Q54.07 31.04 54.73 30.81Q55.39 30.59 55.86 30.15Q56.33 29.70 56.56 29.07L56.56 29.07L61.88 29.94Q61.40 31.58 60.23 32.80Q59.06 34.03 57.27 34.69Q55.49 35.36 53.16 35.36ZM69.18 24.10L69.18 24.10L69.18 35L63.22 35L63.22 15.89L68.82 15.89L68.94 20.71L68.68 20.71Q69.39 18.44 70.88 17.05Q72.38 15.65 74.91 15.65L74.91 15.65Q76.90 15.65 78.39 16.54Q79.88 17.43 80.70 19.06Q81.52 20.68 81.52 22.83L81.52 22.83L81.52 35L75.55 35L75.55 23.99Q75.55 22.39 74.73 21.47Q73.91 20.56 72.44 20.56L72.44 20.56Q71.49 20.56 70.74 20.98Q70.00 21.40 69.59 22.18Q69.18 22.97 69.18 24.10ZM90.31 35.27L90.31 35.27Q88.19 35.27 86.44 34.17Q84.70 33.07 83.68 30.89Q82.65 28.71 82.65 25.46L82.65 25.46Q82.65 22.11 83.72 19.94Q84.79 17.76 86.52 16.71Q88.26 15.65 90.25 15.65L90.25 15.65Q91.78 15.65 92.85 16.18Q93.93 16.70 94.62 17.50Q95.31 18.30 95.67 19.17L95.67 19.17L95.81 19.17L95.81 9.54L101.76 9.54L101.76 35L95.88 35L95.88 31.91L95.67 31.91Q95.30 32.76 94.59 33.53Q93.88 34.30 92.83 34.79Q91.78 35.27 90.31 35.27ZM92.34 30.63L92.34 30.63Q93.47 30.63 94.28 29.98Q95.09 29.34 95.52 28.18Q95.95 27.02 95.95 25.46L95.95 25.46Q95.95 23.87 95.52 22.72Q95.09 21.57 94.28 20.94Q93.47 20.32 92.34 20.32L92.34 20.32Q91.19 20.32 90.40 20.96Q89.61 21.60 89.20 22.76Q88.78 23.91 88.78 25.46L88.78 25.46Q88.78 27.00 89.20 28.17Q89.61 29.34 90.40 29.98Q91.19 30.63 92.34 30.63ZM116.13 35L109.28 35L102.48 9.54L109.16 9.54L111.67 20.80Q112.05 22.51 112.35 24.50Q112.65 26.49 112.94 28.48Q113.23 30.47 113.52 32.25L113.52 32.25L112.39 32.25Q112.73 30.47 113.04 28.48Q113.35 26.49 113.69 24.50Q114.03 22.51 114.44 20.80L114.44 20.80L117.14 9.54L123.28 9.54L125.96 20.80Q126.37 22.51 126.71 24.50Q127.05 26.49 127.37 28.48Q127.68 30.47 128.01 32.25L128.01 32.25L126.86 32.25Q127.17 30.47 127.45 28.48Q127.74 26.49 128.05 24.50Q128.37 22.51 128.73 20.80L128.73 20.80L131.24 9.54L137.92 9.54L131.12 35L124.28 35L121.31 23.24Q120.71 20.83 120.33 18.02Q119.94 15.21 119.43 12.44L119.43 12.44L120.97 12.44Q120.39 15.18 120.06 17.96Q119.74 20.75 119.11 23.24L119.11 23.24L116.13 35ZM144.59 35L138.62 35L138.62 15.89L144.59 15.89L144.59 35ZM141.60 13.65L141.60 13.65Q140.33 13.65 139.43 12.81Q138.52 11.96 138.52 10.78L138.52 10.78Q138.52 9.59 139.43 8.75Q140.33 7.91 141.60 7.91L141.60 7.91Q142.88 7.91 143.79 8.74Q144.69 9.57 144.69 10.78L144.69 10.78Q144.69 11.98 143.79 12.82Q142.88 13.65 141.60 13.65ZM154.52 35.36L154.52 35.36Q152.08 35.36 150.20 34.67Q148.32 33.97 147.14 32.67Q145.96 31.36 145.62 29.53L145.62 29.53L151.15 28.66Q151.51 29.91 152.37 30.54Q153.22 31.17 154.74 31.17L154.74 31.17Q155.99 31.17 156.71 30.74Q157.43 30.30 157.43 29.58L157.43 29.58Q157.43 28.92 156.85 28.51Q156.28 28.11 155.09 27.87L155.09 27.87L151.75 27.22Q148.92 26.68 147.51 25.30Q146.10 23.93 146.10 21.72L146.10 21.72Q146.10 19.81 147.13 18.46Q148.16 17.11 150.05 16.38Q151.94 15.65 154.50 15.65L154.50 15.65Q156.90 15.65 158.67 16.30Q160.43 16.94 161.52 18.12Q162.60 19.31 162.93 20.95L162.93 20.95L157.67 21.79Q157.41 20.83 156.61 20.29Q155.82 19.76 154.61 19.76L154.61 19.76Q153.53 19.76 152.79 20.19Q152.04 20.63 152.04 21.36L152.04 21.36Q152.04 21.94 152.50 22.38Q152.97 22.81 154.20 23.05L154.20 23.05L157.85 23.74Q160.69 24.28 162.08 25.55Q163.48 26.81 163.48 28.90L163.48 28.90Q163.48 30.86 162.32 32.32Q161.17 33.77 159.15 34.56Q157.14 35.36 154.52 35.36ZM173.37 35.36L173.37 35.36Q170.38 35.36 168.21 34.17Q166.04 32.98 164.89 30.78Q163.74 28.57 163.74 25.52L163.74 25.52Q163.74 22.58 164.89 20.35Q166.04 18.13 168.16 16.89Q170.28 15.65 173.15 15.65L173.15 15.65Q175.17 15.65 176.85 16.29Q178.54 16.92 179.77 18.16Q181.01 19.40 181.69 21.21Q182.36 23.02 182.36 25.40L182.36 25.40L182.36 26.90L165.85 26.90L165.85 23.43L179.53 23.43L176.74 24.25Q176.74 22.92 176.34 21.96Q175.94 21.00 175.15 20.49Q174.37 19.98 173.20 19.98L173.20 19.98Q172.04 19.98 171.24 20.50Q170.43 21.02 170.02 21.95Q169.60 22.88 169.60 24.13L169.60 24.13L169.60 26.63Q169.60 28.10 170.08 29.08Q170.57 30.06 171.44 30.55Q172.31 31.04 173.48 31.04L173.48 31.04Q174.28 31.04 174.94 30.81Q175.60 30.59 176.07 30.15Q176.54 29.70 176.77 29.07L176.77 29.07L182.09 29.94Q181.61 31.58 180.44 32.80Q179.27 34.03 177.48 34.69Q175.70 35.36 173.37 35.36Z"/>
    </g>
</svg> 